# xmcd
#
# Track frame offsets:
#  150
#  21720
#  60053
#  105345
#  125228
#  150581
#  178056
#  206648
#
# Disc length: 3480 seconds
#
# Revision: 1
# Processed by: cddbd v1.5.2PL0 Copyright (c) Steve Scherf et al.
# Submitted via: Collectorz.com_Music_Collector 6.11
#
DISCID=680d9608
DTITLE=Eric Clapton - Superstar Concert Series - Live 1990 (2CDs)  [CD2)
DYEAR=1990
DGENRE=Blues
TTITLE0=All Your Lovin'
TTITLE1=Have You Ever Loved A Woman
TTITLE2=Ramblin' On My Mind
TTITLE3=E.C. Instrumental
TTITLE4=Before You Accuse Me
TTITLE5=Pretending
TTITLE6=White Room
TTITLE7=Sunshine Of Your Love
EXTD=
EXTT0=
EXTT1=
EXTT2=
EXTT3=
EXTT4=
EXTT5=
EXTT6=
EXTT7=
PLAYORDER=
